<svg xmlns="http://www.w3.org/2000/svg" id="10d077d9-48ad-4202-849b-1ebd5f47a2b1" data-name="6838c3e1-efa4-4623-9be6-c272a445ec4c" viewBox="0 0 90 340.16"><defs><style>.ddeae75d-22e1-40c6-97df-b16d77d36d7e{fill:none;clip-rule:evenodd}.f2609a43-b683-438f-a0de-02ed8eef80df{clip-path:url(#4c57af4e-71d7-45ba-a8c3-f5fb71f69aeb)}.ba5ace41-33e6-4dd0-8331-1bbde46eff29{clip-path:url(#d38d5039-191f-466f-82e7-8a31fc9726b9)}.a42d4922-c5c7-4122-8677-8dd84d01ec24{fill:#ffcc05}.a74e4b61-fd72-41f4-8f9f-96ca1cf2366e{clip-path:url(#42fee76e-f56b-4f23-bd92-1f667bdab7fc)}.e201acf2-08f1-4f92-bc4b-5a4bd8da7bcf{fill:#b7942f}.ed8e281e-bc82-45db-b9cf-029d31c3ebf8{clip-path:url(#8f6717b2-2862-43d6-a5fc-55135be08286)}.bd61819c-7fee-4e1a-8b7a-821c28f1c36f{clip-path:url(#a411db7a-0e9c-4f82-ac21-578e6e74b083)}.c531cf41-63f2-4d06-bfaa-25fc8f9578c6{fill:#a77841}.f4905f44-764a-412c-b206-d6f71578e882{clip-path:url(#f421cc9e-8eca-45cd-b6ae-92918a4d9d09)}.ba1d3188-0911-4406-b7d6-dc9aa5d5d446{clip-path:url(#74cc6a19-c3c1-4864-a4b0-8abf752b5a3c)}.b60a0001-81ed-45b1-bf25-9028217103c7{clip-path:url(#2af0a62d-4266-4ab3-b72d-94d827b29807)}.a281c6a5-ba67-4e03-9281-f1574c5bae1f{clip-path:url(#19c097f9-ef17-4ba8-8d1f-fbb8b27c843c)}.b0515b18-a570-417c-bb5c-550b06aab9d7{clip-path:url(#c052d8df-aebc-40da-9e66-a8e2b9d85611)}.fa4b5013-d0aa-41cc-94c8-8da97e9a58d4{clip-path:url(#b6deeee2-bcf3-4b2d-be67-e78003305bf4)}.b4c1e5e6-80f8-4c43-8183-f5bb977b285c{clip-path:url(#de273385-8f89-4a3d-af66-f202650e61f8)}.e3c2392b-8596-4ef3-a92e-d7285d2dccdb{clip-path:url(#7236a686-29a8-4f0c-ac7f-bf4e5b414b65)}.caae3564-5ec1-4088-83cb-1af578ec1def{clip-path:url(#1e78f748-2eff-42bf-beb5-6e19ac5a9dc0)}.a20c12e8-c128-4cb9-8f5f-270fc52652c0{clip-path:url(#af53a439-f03f-44ff-9a0c-a8ff0c0e4361)}.a31bae89-45dd-4daf-809f-0e2f7f41235d{clip-path:url(#0bdd9eac-140a-415c-83fd-c5a20b1f6e70)}.f8082254-f737-4f46-9bd8-f6b8ca0163d6{fill:#9d5031}.dba38419-e5a5-4585-a284-d143812eb1fc{clip-path:url(#81437b03-6e58-48ac-a623-ecfdc01dfbb3)}.c93d0eec-593e-448b-a32a-c595e58a221c{clip-path:url(#fe6bf25b-3e7c-493b-8fb9-4e515b556349)}.de775c73-6381-4fca-9c3e-c9a0c30e2bd9{clip-path:url(#c6d9b38b-1ba5-4b66-ba98-8c7b37846653)}.b278e2ca-fabd-4892-b379-af50c550b694{fill:#e5e5e4}.b9844eff-70aa-4e74-b469-26dc03074411{fill:#653614}.d05490a7-58c8-450f-b6ac-b36475d3e802{fill:#3f2410}</style><clipPath id="4c57af4e-71d7-45ba-a8c3-f5fb71f69aeb"><path d="M68.283 210.866a.97.97 0 1 0 1.939 0v-3.878a.969.969 0 1 1 1.938 0v5.818a.97.97 0 0 0 1.939.012v.958a.969.969 0 1 0 1.938 0v-.97a.97.97 0 1 0 1.939 0V209.9a.969.969 0 0 0 1.938 0v-74.667H68.283v75.634z" class="ddeae75d-22e1-40c6-97df-b16d77d36d7e"/></clipPath><clipPath id="d38d5039-191f-466f-82e7-8a31fc9726b9"><path d="M21.755 177.9h46.529v41.9l-21.326-20.57a1.939 1.939 0 0 0-3.878 0l-7.755 91.149h-13.57V177.9z" class="ddeae75d-22e1-40c6-97df-b16d77d36d7e"/></clipPath><clipPath id="42fee76e-f56b-4f23-bd92-1f667bdab7fc"><path d="M33.387 187.595a12.61 12.61 0 0 1-11.633 7.758v-1.94a10.609 10.609 0 0 0 6.149-1.949 10.722 10.722 0 0 0 3.353-3.869h2.131zm23.264 0a12.606 12.606 0 0 0 11.633 7.758v-1.94a10.659 10.659 0 0 1-9.5-5.818h-2.133z" class="ddeae75d-22e1-40c6-97df-b16d77d36d7e"/></clipPath><clipPath id="8f6717b2-2862-43d6-a5fc-55135be08286"><path d="M68.284 219.8v70.577H54.713l-7.755-91.147a2.264 2.264 0 0 0-.531-1.29z" class="ddeae75d-22e1-40c6-97df-b16d77d36d7e"/></clipPath><clipPath id="a411db7a-0e9c-4f82-ac21-578e6e74b083"><path d="M33.387 84.811h23.265v27.15H33.387z" class="74fec21a-39db-4aba-9cb0-bc2d6dd47b9e"/></clipPath><clipPath id="d480a0a8-ba8a-4837-b42a-c07477ef4c2c"><path d="M33.387 84.81h23.265v27.151h-4.154L33.387 92.843V84.81z" class="ddeae75d-22e1-40c6-97df-b16d77d36d7e"/></clipPath><clipPath id="10510a74-e03a-4bda-a6d4-bfd0074e4321"><path d="M64.407 61.538a3.879 3.879 0 1 0 3.878 3.878 3.878 3.878 0 0 0-3.878-3.878" class="ddeae75d-22e1-40c6-97df-b16d77d36d7e"/></clipPath><clipPath id="581d7629-a50b-44ef-9a92-92315a5cf369"><path d="M64.407 63.477a1.939 1.939 0 1 0 1.938 1.939 1.939 1.939 0 0 0-1.938-1.939" class="ddeae75d-22e1-40c6-97df-b16d77d36d7e"/></clipPath><clipPath id="f421cc9e-8eca-45cd-b6ae-92918a4d9d09"><path d="M25.632 61.538a3.879 3.879 0 1 0 3.878 3.878 3.877 3.877 0 0 0-3.878-3.878" class="ddeae75d-22e1-40c6-97df-b16d77d36d7e"/></clipPath><clipPath id="360bae71-0892-46a1-b6d3-2e4dd20d8825"><path d="M25.632 63.477a1.939 1.939 0 1 0 1.938 1.939 1.938 1.938 0 0 0-1.938-1.939" class="ddeae75d-22e1-40c6-97df-b16d77d36d7e"/></clipPath><clipPath id="74cc6a19-c3c1-4864-a4b0-8abf752b5a3c"><path d="M45.02 38.267a19.446 19.446 0 0 1 19.386 19.391v19.4a19.387 19.387 0 1 1-38.774 0v-19.4A19.447 19.447 0 0 1 45.02 38.267" class="ddeae75d-22e1-40c6-97df-b16d77d36d7e"/></clipPath><clipPath id="2af0a62d-4266-4ab3-b72d-94d827b29807"><path d="M25.905 78.991a19.663 19.663 0 0 0 38.229 0H56.49l-11.471-5.817-11.471 5.817h-7.643z" class="ddeae75d-22e1-40c6-97df-b16d77d36d7e"/></clipPath><clipPath id="b520d05d-523e-4ed0-8fa6-8c0f11580234"><path d="M48.776 83.84a7.756 7.756 0 0 0 4-6.788l-7.755.97-7.755-.97a7.754 7.754 0 0 0 4 6.788h7.512z" class="ddeae75d-22e1-40c6-97df-b16d77d36d7e"/></clipPath><clipPath id="19c097f9-ef17-4ba8-8d1f-fbb8b27c843c"><path d="M45.019 84.81a7.722 7.722 0 0 0 3.756-.97 7.757 7.757 0 0 0-7.512 0 7.726 7.726 0 0 0 3.756.97" class="ddeae75d-22e1-40c6-97df-b16d77d36d7e"/></clipPath><clipPath id="c052d8df-aebc-40da-9e66-a8e2b9d85611"><path d="M35.326 61.538a3.879 3.879 0 1 1-3.878 3.878 3.878 3.878 0 0 1 3.878-3.878" class="ddeae75d-22e1-40c6-97df-b16d77d36d7e"/></clipPath><clipPath id="b6deeee2-bcf3-4b2d-be67-e78003305bf4"><path d="M50.836 77.053a1.948 1.948 0 0 1-1.936 1.939h-7.758a1.946 1.946 0 0 1-1.942-1.939h11.636z" class="ddeae75d-22e1-40c6-97df-b16d77d36d7e"/></clipPath><clipPath id="de273385-8f89-4a3d-af66-f202650e61f8"><path d="M45.019 73.174a5.818 5.818 0 0 0 5.817 5.818h5.816a5.817 5.817 0 0 0-5.816-5.818h-5.817z" class="ddeae75d-22e1-40c6-97df-b16d77d36d7e"/></clipPath><clipPath id="0cf0d61a-6e88-4989-b0ae-ffcf7d32321e"><path d="M54.713 61.538a3.879 3.879 0 1 1-3.878 3.878 3.878 3.878 0 0 1 3.878-3.878" class="ddeae75d-22e1-40c6-97df-b16d77d36d7e"/></clipPath><clipPath id="edec0303-7490-4a0a-8167-ab2255f943ce"><path d="M35.326 63.477a1.939 1.939 0 1 1-1.938 1.939 1.939 1.939 0 0 1 1.938-1.939" class="ddeae75d-22e1-40c6-97df-b16d77d36d7e"/></clipPath><clipPath id="b489b16d-91e9-4063-b429-c47e0edd94a0"><path d="M54.713 63.477a1.939 1.939 0 1 1-1.938 1.939 1.939 1.939 0 0 1 1.938-1.939" class="ddeae75d-22e1-40c6-97df-b16d77d36d7e"/></clipPath><clipPath id="7236a686-29a8-4f0c-ac7f-bf4e5b414b65"><path d="M33.387 64.447a.969.969 0 1 1-.97.969.969.969 0 0 1 .97-.969" class="ddeae75d-22e1-40c6-97df-b16d77d36d7e"/></clipPath><clipPath id="1e78f748-2eff-42bf-beb5-6e19ac5a9dc0"><path d="M52.775 64.447a.969.969 0 1 1-.97.969.97.97 0 0 1 .97-.969" class="ddeae75d-22e1-40c6-97df-b16d77d36d7e"/></clipPath><clipPath id="1b5e8976-52b0-4f31-a909-08f9e96e5b4b"><path d="M29.51 53.781v-7.758a3.877 3.877 0 0 0-3.878 3.877v7.76a3.879 3.879 0 0 0 3.878-3.88" class="ddeae75d-22e1-40c6-97df-b16d77d36d7e"/></clipPath><clipPath id="796fbcba-ecac-42f6-b2a9-d777c898483d"><path d="M56.653 47.962H27.571A11.635 11.635 0 0 1 39.2 36.326h29.087a11.636 11.636 0 0 1-11.634 11.636" class="ddeae75d-22e1-40c6-97df-b16d77d36d7e"/></clipPath><clipPath id="70d785b0-cddf-4e55-bc91-d082a69b28b1"><path d="M56.653 47.962H27.571v-.151a5.817 5.817 0 0 1 5.814-5.667H62.47a5.817 5.817 0 0 0 5.814-5.666 11.634 11.634 0 0 1-11.631 11.484" class="ddeae75d-22e1-40c6-97df-b16d77d36d7e"/></clipPath><clipPath id="093e6a75-eed7-4104-8ac8-a7e702533b0c"><path d="M60.529 53.781v-7.758a3.878 3.878 0 0 1 3.877 3.877v7.76a3.879 3.879 0 0 1-3.878-3.879" class="ddeae75d-22e1-40c6-97df-b16d77d36d7e"/></clipPath><clipPath id="af53a439-f03f-44ff-9a0c-a8ff0c0e4361"><path d="M45.019 73.174H39.2a5.817 5.817 0 0 0-5.817 5.818H39.2a5.817 5.817 0 0 0 5.816-5.818" class="ddeae75d-22e1-40c6-97df-b16d77d36d7e"/></clipPath><clipPath id="336941ff-3733-433a-90a0-13888f2f2fca"><path d="M44.054 65.416a.965.965 0 0 1 1.931 0V69.3a.969.969 0 0 1-.965.969h-1.94a.972.972 0 0 0 0 1.944h1.94a.966.966 0 0 1 0 1.932h-1.939a2.909 2.909 0 0 1 0-5.818h.973v-2.91z" class="ddeae75d-22e1-40c6-97df-b16d77d36d7e"/></clipPath><clipPath id="b8e83dc4-cda4-4166-aee2-9b25d407538b"><path d="M32.421 61.534a.966.966 0 1 1 0-1.931h5.817a.966.966 0 0 1 0 1.931h-5.817z" class="ddeae75d-22e1-40c6-97df-b16d77d36d7e"/></clipPath><clipPath id="3c3d1e9b-747d-4b5a-95bf-06009108ac7e"><path d="M51.631 61.534a.966.966 0 0 1 0-1.931h5.817a.966.966 0 1 1 0 1.931h-5.817z" class="ddeae75d-22e1-40c6-97df-b16d77d36d7e"/></clipPath><clipPath id="0bdd9eac-140a-415c-83fd-c5a20b1f6e70"><path d="M21.755 210.866a.97.97 0 1 1-1.939 0v-3.878a.969.969 0 1 0-1.938 0v5.818a.969.969 0 0 1-1.938.012v.958a.97.97 0 1 1-1.939 0v-.97a.97.97 0 1 1-1.939 0V209.9a.969.969 0 0 1-1.938 0v-74.667h11.631v75.634z" class="ddeae75d-22e1-40c6-97df-b16d77d36d7e"/></clipPath><clipPath id="9c986daf-3095-48ff-add4-a5ca9e3eeb74"><path d="M10.123 189.535v-77.574c0-3.879 1.968-4.863 3.876-5.819l19.388-9.7a11.633 11.633 0 1 0 23.265 0l19.388 9.7c1.908.956 3.878 1.943 3.878 5.819v77.574H68.285V177.9h-46.53v11.638H10.123z" class="ddeae75d-22e1-40c6-97df-b16d77d36d7e"/></clipPath><clipPath id="81437b03-6e58-48ac-a623-ecfdc01dfbb3"><path d="M36.794 104.674a11.633 11.633 0 0 0 19.858-8.228l19.388 9.7c1.909.956 3.878 1.94 3.878 5.819v35.85z" class="ddeae75d-22e1-40c6-97df-b16d77d36d7e"/></clipPath><clipPath id="8cc543fc-2ab6-4535-817f-ce0c31f09966"><path d="M60.529 100.326a3.879 3.879 0 0 1-3.878-3.879v7.753a3.879 3.879 0 0 1-3.878-3.879v3.88a3.879 3.879 0 0 1-3.878-3.88v3.88a3.877 3.877 0 0 1-3.876-3.88l-1.939-5.818 1.938-5.82a11.633 11.633 0 0 0 11.634-11.63 7.759 7.759 0 0 1 7.755-7.753l3.878 23.272a3.878 3.878 0 0 1-3.878-3.88v7.759a3.878 3.878 0 0 1-3.878-3.879v7.759z" class="ddeae75d-22e1-40c6-97df-b16d77d36d7e"/></clipPath><clipPath id="fe6bf25b-3e7c-493b-8fb9-4e515b556349"><path d="M45.02 100.325a3.878 3.878 0 0 1-3.878 3.88v-3.88a3.879 3.879 0 0 1-3.878 3.879v-3.879a3.878 3.878 0 0 1-3.878 3.879v-7.757a3.879 3.879 0 0 1-3.878 3.879v-7.759a3.878 3.878 0 0 1-3.878 3.879v-7.759a3.881 3.881 0 0 1-3.878 3.88l3.88-23.267a7.758 7.758 0 0 1 7.755 7.756 11.633 11.633 0 0 0 11.632 11.631v11.638z" class="ddeae75d-22e1-40c6-97df-b16d77d36d7e"/></clipPath><clipPath id="864220c0-cfaf-4034-b405-36c1a368c63f"><path d="M2.348 303.955h34.9v2.909a.972.972 0 0 1-.97.97H3.316a.973.973 0 0 1-.968-.97v-2.909z" class="ddeae75d-22e1-40c6-97df-b16d77d36d7e"/></clipPath><clipPath id="8deab113-8d34-4a17-aa2f-20de403b3ace"><path d="M35.325 290.379a.974.974 0 0 1 .97.97v1.94a.967.967 0 0 1-.427.8 47.684 47.684 0 0 1 1.37 9.864H2.348a3.665 3.665 0 0 1 2.639-3.676l11.49-2.553a6.949 6.949 0 0 0 4.463-3.914.967.967 0 0 1-.154-.523v-1.94a.973.973 0 0 1 .95-.97h13.59z" class="ddeae75d-22e1-40c6-97df-b16d77d36d7e"/></clipPath><clipPath id="c6d9b38b-1ba5-4b66-ba98-8c7b37846653"><path d="M87.652 303.955h-34.9v2.909a.973.973 0 0 0 .97.97h32.96a.973.973 0 0 0 .97-.97v-2.909z" class="ddeae75d-22e1-40c6-97df-b16d77d36d7e"/></clipPath><clipPath id="e42fdd00-6697-4181-8a81-53d3627b75be"><path d="M54.674 290.379a.973.973 0 0 0-.968.97v1.94a.969.969 0 0 0 .425.8 47.769 47.769 0 0 0-1.37 9.864h34.891a3.666 3.666 0 0 0-2.64-3.676l-11.489-2.553a6.943 6.943 0 0 1-4.463-3.914.967.967 0 0 0 .154-.523v-1.94a.973.973 0 0 0-.95-.97h-13.59z" class="ddeae75d-22e1-40c6-97df-b16d77d36d7e"/></clipPath><clipPath id="3891f713-f454-4e81-9ff4-0149236b0f22"><path d="M25.632 142.989l-3.878-7.756 3.878-7.758-3.878-7.758 3.878-7.758 3.878 7.758-3.878 7.758 3.878 7.758-3.878 7.756 3.878 7.759-3.878 7.752 3.878 7.758-3.878 7.758-3.878-7.758 3.878-7.758-3.878-7.756zm38.774-15.514l-3.876-7.758 3.876-7.758 3.878 7.758-3.878 7.758 3.878 7.758-3.878 7.756 3.878 7.759-3.878 7.752 3.878 7.758-3.878 7.758-3.876-7.758 3.876-7.758-3.876-7.756 3.876-7.759-3.876-7.756zm-7.755 0l-3.878-7.758 3.878-7.758 3.879 7.758-3.879 7.758 3.879 7.758-3.879 7.756 3.879 7.759-3.879 7.752 3.879 7.758-3.879 7.758-3.878-7.758 3.878-7.758-3.878-7.756 3.878-7.759-3.878-7.756zm-7.755 0l-3.876-7.758 3.88-7.757 3.878 7.758-3.878 7.757 3.878 7.758-3.878 7.756 3.878 7.759L48.9 158.5l3.878 7.758-3.878 7.762-3.876-7.758L48.9 158.5l-3.876-7.756 3.876-7.759-3.876-7.756zm-7.754 0l-3.878-7.758 3.878-7.758 3.878 7.758-3.878 7.758 3.878 7.758-3.878 7.756 3.878 7.759-3.878 7.752 3.878 7.758-3.878 7.758-3.878-7.758 3.878-7.758-3.878-7.756 3.878-7.759-3.878-7.756zm-7.755 0l-3.878-7.758 3.878-7.758 3.878 7.758-3.878 7.758 3.878 7.758-3.878 7.756 3.878 7.759-3.878 7.752 3.878 7.758-3.878 7.758-3.878-7.758 3.878-7.758-3.878-7.756 3.878-7.759-3.878-7.756z" class="ddeae75d-22e1-40c6-97df-b16d77d36d7e"/></clipPath><clipPath id="90c91f0b-5ff2-4392-a56d-214bdecf70a6"><path d="M67.97 135.861l-5.17-5.172 1.605-3.214-3.876-7.758 3.876-7.756 3.878 7.756-3.878 7.758 3.878 7.758zm-10.339-10.343l-3.916-3.918-.941-1.884 3.878-7.756 3.878 7.756zm-5.171-5.173l-5.169-5.17 1.605-3.213 3.878 7.756z" class="ddeae75d-22e1-40c6-97df-b16d77d36d7e"/></clipPath></defs><title>people-originals</title><path d="M63.669 130.619h20.86v88.741h-20.86z" class="f2609a43-b683-438f-a0de-02ed8eef80df 6e79f5cc-190d-4ca8-a473-0fb657e71823"/><path d="M17.141 173.284h55.757v121.709H17.141z" class="ba5ace41-33e6-4dd0-8331-1bbde46eff29 a42d4922-c5c7-4122-8677-8dd84d01ec24"/><path d="M17.141 182.981h55.757v16.985H17.141z" class="a74e4b61-fd72-41f4-8f9f-96ca1cf2366e e201acf2-08f1-4f92-bc4b-5a4bd8da7bcf"/><path d="M41.814 193.326h31.084v101.667H41.814z" class="ed8e281e-bc82-45db-b9cf-029d31c3ebf8 e201acf2-08f1-4f92-bc4b-5a4bd8da7bcf"/><path d="M28.773 80.197h32.493v36.378H28.773z" class="bd61819c-7fee-4e1a-8b7a-821c28f1c36f 4cb63897-e438-4121-9f53-6701355c4098"/><path d="M28.773 80.196h32.493v36.378H28.773z" class="79571900-f028-48f8-a0b2-cbab01890288 c531cf41-63f2-4d06-bfaa-25fc8f9578c6"/><path d="M55.915 56.924h16.983v16.985H55.915z" class="021e882d-2ce9-491b-937b-c043111748d1 4cb63897-e438-4121-9f53-6701355c4098"/><path d="M57.855 58.863h13.104V71.97H57.855z" class="50ce0762-3b5a-4b7a-aed9-ca6f8355375a c531cf41-63f2-4d06-bfaa-25fc8f9578c6"/><path d="M17.141 56.924h16.983v16.985H17.141z" class="f4905f44-764a-412c-b206-d6f71578e882 95c5791e-bcf0-49fe-a58d-3d71706b926c"/><path d="M19.08 58.863h13.104V71.97H19.08z" class="5d795742-81bf-4391-8703-24f0a9302967 4cb63897-e438-4121-9f53-6701355c4098"/><path d="M21.018 33.653H69.02v67.407H21.018z" class="ba1d3188-0911-4406-b7d6-dc9aa5d5d446 95c5791e-bcf0-49fe-a58d-3d71706b926c"/><path d="M21.291 68.56h47.457v30.096H21.291z" class="b60a0001-81ed-45b1-bf25-9028217103c7 4cb63897-e438-4121-9f53-6701355c4098"/><path d="M32.65 72.439h24.738v16.015H32.65z" class="50a2b7e6-7480-4cc5-b91e-e28fea40fd6c 985bea20-2baa-46b6-9962-a0e311fe051a"/><path d="M36.649 78.256h16.74v11.168h-16.74z" class="a281c6a5-ba67-4e03-9281-f1574c5bae1f 9e0d9f53-1518-4cb1-b4f7-b77868b10b66"/><path d="M26.834 56.924h16.983v16.985H26.834z" class="b0515b18-a570-417c-bb5c-550b06aab9d7 40961fb9-6433-472a-b6dc-66ce2df09633"/><path d="M34.589 72.439h20.86v11.167h-20.86z" class="fa4b5013-d0aa-41cc-94c8-8da97e9a58d4 40961fb9-6433-472a-b6dc-66ce2df09633"/><path d="M40.405 68.56h20.86v15.045h-20.86z" class="b4c1e5e6-80f8-4c43-8183-f5bb977b285c 985bea20-2baa-46b6-9962-a0e311fe051a"/><path d="M46.222 56.924h16.983v16.985H46.222z" class="0eac99a6-3a64-43e5-8df1-effc7431305c 40961fb9-6433-472a-b6dc-66ce2df09633"/><path d="M28.774 58.863h13.104V71.97H28.774z" class="0dd0d74e-6e96-4910-9583-24bf2ea5334a 6e368964-1820-4596-901d-706acabe809e"/><path d="M48.161 58.863h13.104V71.97H48.161z" class="6d575c16-f17c-4df7-a498-40eab27fc4b7 6e368964-1820-4596-901d-706acabe809e"/><path d="M27.804 59.833h11.167V71H27.804z" class="e3c2392b-8596-4ef3-a92e-d7285d2dccdb 40961fb9-6433-472a-b6dc-66ce2df09633"/><path d="M47.191 59.833h11.166V71H47.191z" class="caae3564-5ec1-4088-83cb-1af578ec1def 40961fb9-6433-472a-b6dc-66ce2df09633"/><path d="M21.018 41.41h13.105v20.866H21.018z" class="7aba6bc3-0ea0-45fe-af82-152a4af062fe 25a0d121-b2ed-4a76-8ed1-f6230ba1a2cc"/><path d="M22.957 31.712h49.944v20.864H22.957z" class="1386d0e6-244a-4737-aae4-a38f7d15e60c 25a0d121-b2ed-4a76-8ed1-f6230ba1a2cc"/><path d="M22.957 31.864h49.941v20.713H22.957z" class="13a8fefa-23a2-472c-b552-51bf3fd01526 985bea20-2baa-46b6-9962-a0e311fe051a"/><path d="M55.915 41.41H69.02v20.864H55.915z" class="308023df-1782-4544-98fd-f78334fba3b8 985bea20-2baa-46b6-9962-a0e311fe051a"/><path d="M28.773 68.56h20.86v15.045h-20.86z" class="a20c12e8-c128-4cb9-8f5f-270fc52652c0 25a0d121-b2ed-4a76-8ed1-f6230ba1a2cc"/><path d="M35.558 59.837h15.04v18.92h-15.04z" class="5762219d-ffb9-4aa4-b040-695fe0025559 c531cf41-63f2-4d06-bfaa-25fc8f9578c6"/><path d="M26.842 54.989h16.975v11.159H26.842z" class="49a832bb-d123-4ce7-973c-3674e03f5e61 985bea20-2baa-46b6-9962-a0e311fe051a"/><path d="M46.052 54.989h16.975v11.159H46.052z" class="75242859-384e-4a7a-a4e9-ea4a92811dfc 985bea20-2baa-46b6-9962-a0e311fe051a"/><path d="M5.508 130.619h20.86v88.741H5.508z" class="a31bae89-45dd-4daf-809f-0e2f7f41235d 6e79f5cc-190d-4ca8-a473-0fb657e71823"/><path d="M5.509 91.831h79.022v102.318H5.509z" class="70a52cdb-5e74-4ae8-8d32-bcddcf4026cf f8082254-f737-4f46-9bd8-f6b8ca0163d6"/><path d="M32.18 91.832h52.351v60.592H32.18z" class="dba38419-e5a5-4585-a284-d143812eb1fc 96bc5cc7-579c-42ae-9971-ed8cdede65a7"/><path d="M38.467 64.682h34.431v44.137H38.467z" class="64ab085f-dcd7-464f-853e-ad5ffaca5206 985bea20-2baa-46b6-9962-a0e311fe051a"/><path d="M17.141 64.682h32.493v44.137H17.141z" class="c93d0eec-593e-448b-a32a-c595e58a221c 25a0d121-b2ed-4a76-8ed1-f6230ba1a2cc"/><path d="M-2.266 299.341h44.125v13.107H-2.266z" class="415d2eb0-613d-4b56-9258-78b5ee244309 40961fb9-6433-472a-b6dc-66ce2df09633"/><path d="M-2.266 285.765h44.118v22.804H-2.266z" class="67baaa6e-38be-4f17-889a-4fa1e27c9db4 694f96e7-0550-4e2c-b31d-0a74da7a1116"/><path d="M48.141 299.341h44.125v13.107H48.141z" class="de775c73-6381-4fca-9c3e-c9a0c30e2bd9 b278e2ca-fabd-4892-b379-af50c550b694"/><path d="M48.147 285.765h44.12v22.804h-44.12z" class="5ed2c5c7-56e8-427d-bf5f-fa4953b8a97a f8082254-f737-4f46-9bd8-f6b8ca0163d6"/><path d="M17.141 107.346h55.757v71.288H17.141z" class="4fae22aa-14aa-436e-8f5b-5dc0a07aa88f b9844eff-70aa-4e74-b469-26dc03074411"/><path d="M42.677 107.347h30.22v33.128h-30.22z" class="3d4f7da5-8686-452a-a154-ea99c48f9994 d05490a7-58c8-450f-b6ac-b36475d3e802"/></svg>